<?xml version="1.0" encoding="UTF-8" standalone="no"?>
<!-- Created with Inkscape (http://www.inkscape.org/) -->

<svg
   xmlns:dc="http://purl.org/dc/elements/1.1/"
   xmlns:cc="http://creativecommons.org/ns#"
   xmlns:rdf="http://www.w3.org/1999/02/22-rdf-syntax-ns#"
   xmlns:svg="http://www.w3.org/2000/svg"
   xmlns="http://www.w3.org/2000/svg"
   xmlns:xlink="http://www.w3.org/1999/xlink"
   version="1.1"
   width="100%"
   height="100%"
   id="svg3276">
  <defs
     id="defs3278">
    <linearGradient
       x1="947.45862"
       y1="333.9375"
       x2="915.82068"
       y2="278.34399"
       id="linearGradient4315"
       xlink:href="#linearGradient4309"
       gradientUnits="userSpaceOnUse"
       gradientTransform="translate(-594.93194,-97.72998)" />
    <linearGradient
       id="linearGradient4309">
      <stop
         id="stop4311"
         style="stop-color:#000000;stop-opacity:0.71126759"
         offset="0" />
      <stop
         id="stop4313"
         style="stop-color:#ab0c0c;stop-opacity:0"
         offset="1" />
    </linearGradient>
  </defs>
  <metadata
     id="metadata3282">
    <rdf:RDF>
      <cc:Work
         rdf:about="">
        <dc:format>image/svg+xml</dc:format>
        <dc:type
           rdf:resource="http://purl.org/dc/dcmitype/StillImage" />
        <dc:title></dc:title>
      </cc:Work>
    </rdf:RDF>
  </metadata>
  <g
     transform="translate(558.3329,-66.25)"
     id="layer1">
    <path
       d="m 378.74436,197.40981 -935.74089,0 c 0.40192,1.68018 0.91381,3.1622 1.689,4.34453 l 116.09295,18.34357 0.68939,13.58527 813.23663,2.03434 2.72308,-2.72395 1.30984,-35.58376 z"
       id="path3530"
       style="fill:#ab0c0c;fill-opacity:1;fill-rule:evenodd;stroke:#000000;stroke-width:0.99999994px;stroke-linecap:butt;stroke-linejoin:miter;stroke-opacity:1" />
    <g
       transform="matrix(1.1030209,0,0,1.1033722,-596.70727,57.387487)"
       id="g3383"
       style="fill:#b3b3b3;fill-opacity:1">
      <path
         d="m 612.53125,86.59375 -1.125,-1.15625 -16.5,-0.46875 0,10.9375 7.875,0 0,2.03125 9.75,-0.0625 0,-11.28125 z"
         id="path3385"
         style="fill:#b3b3b3;fill-opacity:1;fill-rule:evenodd;stroke:#000000;stroke-width:0.90645677px;stroke-linecap:butt;stroke-linejoin:miter;stroke-opacity:1" />
      <path
         d="m 612.53125,86.59375 0,11.28125 27.78125,-0.125 -8.59375,-11.0625 -19.09375,0 -0.0937,-0.09375 z"
         id="path3387"
         style="fill:#b3b3b3;fill-opacity:1;fill-rule:evenodd;stroke:#000000;stroke-width:0.90645677px;stroke-linecap:butt;stroke-linejoin:miter;stroke-opacity:1" />
      <path
         d="m 594.90625,95.90625 0,-10.9375 -3.8125,-0.125 -0.3125,11.0625 4.125,0 z"
         id="path3389"
         style="fill:#b3b3b3;fill-opacity:1;fill-rule:evenodd;stroke:#000000;stroke-width:0.90645677px;stroke-linecap:butt;stroke-linejoin:miter;stroke-opacity:1" />
      <path
         d="m 649.24761,92.884555 c 10.89094,-0.09276 25.06489,0.05294 25.06489,0.05294 l -0.125,-1.65625 -25.09375,-0.165805 0.15386,1.76911 z"
         id="path3391"
         style="fill:#b3b3b3;fill-opacity:1;fill-rule:evenodd;stroke:#000000;stroke-width:0.90645677px;stroke-linecap:butt;stroke-linejoin:miter;stroke-opacity:1" />
      <path
         d="m 649.09375,93.5 0,-3 -14.625,-0.4375 2.625,3.6875 c 0.6945,0 6.74465,-0.13265 12,-0.25 z"
         id="path3393"
         style="fill:#b3b3b3;fill-opacity:1;fill-rule:evenodd;stroke:#000000;stroke-width:0.90645677px;stroke-linecap:butt;stroke-linejoin:miter;stroke-opacity:1" />
      <rect
         width="11.532407"
         height="3.2638888"
         x="-606.76086"
         y="86.654686"
         transform="scale(-1,1)"
         id="rect3395"
         style="fill:#b3b3b3;fill-opacity:1;fill-rule:evenodd;stroke:#000000;stroke-width:0.90645677;stroke-linecap:round;stroke-linejoin:miter;stroke-miterlimit:4;stroke-opacity:1;stroke-dasharray:none;stroke-dashoffset:0;marker:none;visibility:visible;display:inline;overflow:visible;enable-background:accumulate" />
      <rect
         width="9.3564816"
         height="1.3055556"
         x="623.40277"
         y="89.208336"
         id="rect3397"
         style="fill:#b3b3b3;fill-opacity:1;fill-rule:evenodd;stroke:#000000;stroke-width:0.90645677;stroke-linecap:round;stroke-linejoin:miter;stroke-miterlimit:4;stroke-opacity:1;stroke-dasharray:none;stroke-dashoffset:0;marker:none;visibility:visible;display:inline;overflow:visible;enable-background:accumulate" />
    </g>
    <g
       transform="matrix(1.1030209,0,0,1.1033722,-530.37575,68.659337)"
       id="g3399"
       style="fill:#b3b3b3;fill-opacity:1">
      <path
         d="m 612.53125,86.59375 -1.125,-1.15625 -16.5,-0.46875 0,10.9375 7.875,0 0,2.03125 9.75,-0.0625 0,-11.28125 z"
         id="path3401"
         style="fill:#b3b3b3;fill-opacity:1;fill-rule:evenodd;stroke:#000000;stroke-width:0.90645677px;stroke-linecap:butt;stroke-linejoin:miter;stroke-opacity:1" />
      <path
         d="m 612.53125,86.59375 0,11.28125 27.78125,-0.125 -8.59375,-11.0625 -19.09375,0 -0.0937,-0.09375 z"
         id="path3403"
         style="fill:#b3b3b3;fill-opacity:1;fill-rule:evenodd;stroke:#000000;stroke-width:0.90645677px;stroke-linecap:butt;stroke-linejoin:miter;stroke-opacity:1" />
      <path
         d="m 594.90625,95.90625 0,-10.9375 -3.8125,-0.125 -0.3125,11.0625 4.125,0 z"
         id="path3405"
         style="fill:#b3b3b3;fill-opacity:1;fill-rule:evenodd;stroke:#000000;stroke-width:0.90645677px;stroke-linecap:butt;stroke-linejoin:miter;stroke-opacity:1" />
      <path
         d="m 649.24761,92.884555 c 10.89094,-0.09276 25.06489,0.05294 25.06489,0.05294 l -0.125,-1.65625 -25.09375,-0.165805 0.15386,1.76911 z"
         id="path3407"
         style="fill:#b3b3b3;fill-opacity:1;fill-rule:evenodd;stroke:#000000;stroke-width:0.90645677px;stroke-linecap:butt;stroke-linejoin:miter;stroke-opacity:1" />
      <path
         d="m 649.09375,93.5 0,-3 -14.625,-0.4375 2.625,3.6875 c 0.6945,0 6.74465,-0.13265 12,-0.25 z"
         id="path3409"
         style="fill:#b3b3b3;fill-opacity:1;fill-rule:evenodd;stroke:#000000;stroke-width:0.90645677px;stroke-linecap:butt;stroke-linejoin:miter;stroke-opacity:1" />
      <rect
         width="11.532407"
         height="3.2638888"
         x="-606.76086"
         y="86.654686"
         transform="scale(-1,1)"
         id="rect3411"
         style="fill:#b3b3b3;fill-opacity:1;fill-rule:evenodd;stroke:#000000;stroke-width:0.90645677;stroke-linecap:round;stroke-linejoin:miter;stroke-miterlimit:4;stroke-opacity:1;stroke-dasharray:none;stroke-dashoffset:0;marker:none;visibility:visible;display:inline;overflow:visible;enable-background:accumulate" />
      <rect
         width="9.3564816"
         height="1.3055556"
         x="623.40277"
         y="89.208336"
         id="rect3413"
         style="fill:#b3b3b3;fill-opacity:1;fill-rule:evenodd;stroke:#000000;stroke-width:0.90645677;stroke-linecap:round;stroke-linejoin:miter;stroke-miterlimit:4;stroke-opacity:1;stroke-dasharray:none;stroke-dashoffset:0;marker:none;visibility:visible;display:inline;overflow:visible;enable-background:accumulate" />
    </g>
    <g
       transform="matrix(-1.1030209,0,0,1.1033722,354.89449,66.282617)"
       id="g3415"
       style="fill:#b3b3b3;fill-opacity:1">
      <path
         d="m 612.53125,86.59375 -1.125,-1.15625 -16.5,-0.46875 0,10.9375 7.875,0 0,2.03125 9.75,-0.0625 0,-11.28125 z"
         id="path3417"
         style="fill:#b3b3b3;fill-opacity:1;fill-rule:evenodd;stroke:#000000;stroke-width:0.90645677px;stroke-linecap:butt;stroke-linejoin:miter;stroke-opacity:1" />
      <path
         d="m 612.53125,86.59375 0,11.28125 27.78125,-0.125 -8.59375,-11.0625 -19.09375,0 -0.0937,-0.09375 z"
         id="path3419"
         style="fill:#b3b3b3;fill-opacity:1;fill-rule:evenodd;stroke:#000000;stroke-width:0.90645677px;stroke-linecap:butt;stroke-linejoin:miter;stroke-opacity:1" />
      <path
         d="m 594.90625,95.90625 0,-10.9375 -3.8125,-0.125 -0.3125,11.0625 4.125,0 z"
         id="path3421"
         style="fill:#b3b3b3;fill-opacity:1;fill-rule:evenodd;stroke:#000000;stroke-width:0.90645677px;stroke-linecap:butt;stroke-linejoin:miter;stroke-opacity:1" />
      <path
         d="m 649.24761,92.884555 c 10.89094,-0.09276 25.06489,0.05294 25.06489,0.05294 l -0.125,-1.65625 -25.09375,-0.165805 0.15386,1.76911 z"
         id="path3423"
         style="fill:#b3b3b3;fill-opacity:1;fill-rule:evenodd;stroke:#000000;stroke-width:0.90645677px;stroke-linecap:butt;stroke-linejoin:miter;stroke-opacity:1" />
      <path
         d="m 649.09375,93.5 0,-3 -14.625,-0.4375 2.625,3.6875 c 0.6945,0 6.74465,-0.13265 12,-0.25 z"
         id="path3425"
         style="fill:#b3b3b3;fill-opacity:1;fill-rule:evenodd;stroke:#000000;stroke-width:0.90645677px;stroke-linecap:butt;stroke-linejoin:miter;stroke-opacity:1" />
      <rect
         width="11.532407"
         height="3.2638888"
         x="-606.76086"
         y="86.654686"
         transform="scale(-1,1)"
         id="rect3427"
         style="fill:#b3b3b3;fill-opacity:1;fill-rule:evenodd;stroke:#000000;stroke-width:0.90645677;stroke-linecap:round;stroke-linejoin:miter;stroke-miterlimit:4;stroke-opacity:1;stroke-dasharray:none;stroke-dashoffset:0;marker:none;visibility:visible;display:inline;overflow:visible;enable-background:accumulate" />
      <rect
         width="9.3564816"
         height="1.3055556"
         x="623.40277"
         y="89.208336"
         id="rect3429"
         style="fill:#b3b3b3;fill-opacity:1;fill-rule:evenodd;stroke:#000000;stroke-width:0.90645677;stroke-linecap:round;stroke-linejoin:miter;stroke-miterlimit:4;stroke-opacity:1;stroke-dasharray:none;stroke-dashoffset:0;marker:none;visibility:visible;display:inline;overflow:visible;enable-background:accumulate" />
    </g>
    <rect
       width="12.898121"
       height="9.1673737"
       x="-266.10806"
       y="116.19067"
       id="rect3431"
       style="fill:#b3b3b3;fill-opacity:1;fill-rule:evenodd;stroke:#000000;stroke-width:0.99999994;stroke-linecap:round;stroke-linejoin:miter;stroke-miterlimit:4;stroke-opacity:1;stroke-dasharray:none;stroke-dashoffset:0;marker:none;visibility:visible;display:inline;overflow:visible;enable-background:accumulate" />
    <rect
       width="19.686605"
       height="8.4883089"
       ry="2.3767264"
       x="-269.16287"
       y="126.03711"
       id="rect3433"
       style="fill:#b3b3b3;fill-opacity:1;fill-rule:evenodd;stroke:#000000;stroke-width:0.99999994;stroke-linecap:round;stroke-linejoin:miter;stroke-miterlimit:4;stroke-opacity:1;stroke-dasharray:none;stroke-dashoffset:0;marker:none;visibility:visible;display:inline;overflow:visible;enable-background:accumulate" />
    <rect
       width="31.22703"
       height="3.0557909"
       ry="0"
       x="-274.93311"
       y="128.41383"
       id="rect3435"
       style="fill:#b3b3b3;fill-opacity:1;fill-rule:evenodd;stroke:#000000;stroke-width:1.00000012;stroke-linecap:round;stroke-linejoin:miter;stroke-miterlimit:4;stroke-opacity:1;stroke-dasharray:none;stroke-dashoffset:0;marker:none;visibility:visible;display:inline;overflow:visible;enable-background:accumulate" />
    <rect
       width="29.190485"
       height="33.27417"
       x="-279.34561"
       y="143.35323"
       id="rect3437"
       style="fill:#b3b3b3;fill-opacity:1;fill-rule:evenodd;stroke:#000000;stroke-width:0.99999994;stroke-linecap:round;stroke-linejoin:miter;stroke-miterlimit:4;stroke-opacity:1;stroke-dasharray:none;stroke-dashoffset:0;marker:none;visibility:visible;display:inline;overflow:visible;enable-background:accumulate" />
    <path
       d="m -227.41371,161.68797 0,-6.4511 97.07533,-0.67907 -1.01828,2.37673 c -17.14497,2.76069 -34.24726,5.64946 -52.27132,5.77204 l -29.52991,0 c -9.27946,0.22659 -12.1032,-0.35405 -14.25582,-1.0186 z"
       id="path3439"
       style="fill:#b3b3b3;fill-opacity:1;fill-rule:evenodd;stroke:#000000;stroke-width:0.99999994px;stroke-linecap:butt;stroke-linejoin:miter;stroke-opacity:1" />
    <rect
       width="28.172211"
       height="13.24176"
       x="-210.4425"
       y="163.38565"
       id="rect3441"
       style="fill:#b3b3b3;fill-opacity:1;fill-rule:evenodd;stroke:#000000;stroke-width:0.99999994;stroke-linecap:round;stroke-linejoin:miter;stroke-miterlimit:4;stroke-opacity:1;stroke-dasharray:none;stroke-dashoffset:0;marker:none;visibility:visible;display:inline;overflow:visible;enable-background:accumulate" />
    <rect
       width="28.512035"
       height="45.157162"
       ry="2.2026641"
       x="-118.67422"
       y="96.555656"
       transform="matrix(0.97764352,-0.21026921,0.21014121,0.97767104,0,0)"
       id="rect3443"
       style="fill:#b3b3b3;fill-opacity:1;fill-rule:evenodd;stroke:#000000;stroke-width:0.99999994;stroke-linecap:round;stroke-linejoin:miter;stroke-miterlimit:4;stroke-opacity:1;stroke-dasharray:none;stroke-dashoffset:0;marker:none;visibility:visible;display:inline;overflow:visible;enable-background:accumulate" />
    <rect
       width="39.373211"
       height="11.883632"
       x="68.903618"
       y="165.76239"
       id="rect3447"
       style="fill:#b3b3b3;fill-opacity:1;fill-rule:evenodd;stroke:#000000;stroke-width:0.99999994;stroke-linecap:round;stroke-linejoin:miter;stroke-miterlimit:4;stroke-opacity:1;stroke-dasharray:none;stroke-dashoffset:0;marker:none;visibility:visible;display:inline;overflow:visible;enable-background:accumulate" />
    <path
       d="m 14.262887,164.7594 5.75639,0 0,-60.09931 -5.75639,0 0,60.09931 z"
       id="path3449"
       style="fill:#b3b3b3;fill-opacity:1;fill-rule:evenodd;stroke:#000000;stroke-width:0.99999994;stroke-linecap:round;stroke-linejoin:miter;stroke-miterlimit:4;stroke-opacity:1;stroke-dasharray:none;stroke-dashoffset:0;marker:none;visibility:visible;display:inline;overflow:visible;enable-background:accumulate" />
    <path
       d="m -8.4869134,104.66009 -7.1351696,0 0,60.09931 7.1351696,0 0,-60.09931 z"
       id="path3451"
       style="fill:#b3b3b3;fill-opacity:1;fill-rule:evenodd;stroke:#000000;stroke-width:0.99999994;stroke-linecap:round;stroke-linejoin:miter;stroke-miterlimit:4;stroke-opacity:1;stroke-dasharray:none;stroke-dashoffset:0;marker:none;visibility:visible;display:inline;overflow:visible;enable-background:accumulate" />
    <path
       d="m -8.4869134,104.66009 0,60.09931 22.7498004,0 0,-60.09931 -22.7498004,0 z"
       id="path3453"
       style="fill:#b3b3b3;fill-opacity:1;fill-rule:evenodd;stroke:#000000;stroke-width:0.99999994;stroke-linecap:round;stroke-linejoin:miter;stroke-miterlimit:4;stroke-opacity:1;stroke-dasharray:none;stroke-dashoffset:0;marker:none;visibility:visible;display:inline;overflow:visible;enable-background:accumulate" />
    <path
       d="m -15.622083,104.66009 35.64136,0 0,-2.72395 -35.64136,0 0,2.72395 z"
       id="path3455"
       style="fill:#b3b3b3;fill-opacity:1;fill-rule:evenodd;stroke:#000000;stroke-width:0.99999994;stroke-linecap:round;stroke-linejoin:miter;stroke-miterlimit:4;stroke-opacity:1;stroke-dasharray:none;stroke-dashoffset:0;marker:none;visibility:visible;display:inline;overflow:visible;enable-background:accumulate" />
    <rect
       width="19.007757"
       height="9.8464375"
       x="30.888056"
       y="145.05092"
       id="rect3457"
       style="fill:#b3b3b3;fill-opacity:1;fill-rule:evenodd;stroke:#000000;stroke-width:0.99999994;stroke-linecap:round;stroke-linejoin:miter;stroke-miterlimit:4;stroke-opacity:1;stroke-dasharray:none;stroke-dashoffset:0;marker:none;visibility:visible;display:inline;overflow:visible;enable-background:accumulate" />
    <path
       d="m -53.628513,157.95313 c 4.8892,1.03064 5.37316,-0.14202 22.06258,6.79063 l -55.66557,0 33.60299,-6.79063 z"
       id="path3509"
       style="fill:#b3b3b3;fill-opacity:1;fill-rule:evenodd;stroke:#000000;stroke-width:0.99999994px;stroke-linecap:butt;stroke-linejoin:miter;stroke-opacity:1" />
    <rect
       width="33.263577"
       height="11.5441"
       ry="0"
       x="-87.57093"
       y="153.87874"
       id="rect3445"
       style="fill:#b3b3b3;fill-opacity:1;fill-rule:evenodd;stroke:#000000;stroke-width:0.99999988;stroke-linecap:round;stroke-linejoin:miter;stroke-miterlimit:4;stroke-opacity:1;stroke-dasharray:none;stroke-dashoffset:0;marker:none;visibility:visible;display:inline;overflow:visible;enable-background:accumulate" />
    <rect
       width="220.28633"
       height="12.902228"
       x="-153.07983"
       y="164.74377"
       id="rect3459"
       style="fill:#b3b3b3;fill-opacity:1;fill-rule:evenodd;stroke:#000000;stroke-width:0.99999994;stroke-linecap:round;stroke-linejoin:miter;stroke-miterlimit:4;stroke-opacity:1;stroke-dasharray:none;stroke-dashoffset:0;marker:none;visibility:visible;display:inline;overflow:visible;enable-background:accumulate" />
    <rect
       width="15.27409"
       height="9.5069056"
       x="32.924675"
       y="155.23688"
       id="rect3461"
       style="fill:#b3b3b3;fill-opacity:1;fill-rule:evenodd;stroke:#000000;stroke-width:0.99999994;stroke-linecap:round;stroke-linejoin:miter;stroke-miterlimit:4;stroke-opacity:1;stroke-dasharray:none;stroke-dashoffset:0;marker:none;visibility:visible;display:inline;overflow:visible;enable-background:accumulate" />
    <path
       d="m 5.0940266,101.59134 0.99962,0 c 2.44453,0 4.4120604,-1.968183 4.4120804,-4.413493 l 0,-1.03441 c 0,-2.44532 -1.9675404,-4.41349 -4.4120804,-4.41349 l -0.99962,0 0,9.861393 z"
       id="path3463"
       style="fill:#b3b3b3;fill-opacity:1;fill-rule:evenodd;stroke:#000000;stroke-width:0.99999994;stroke-linecap:round;stroke-linejoin:miter;stroke-miterlimit:4;stroke-opacity:1;stroke-dasharray:none;stroke-dashoffset:0;marker:none;visibility:visible;display:inline;overflow:visible;enable-background:accumulate" />
    <path
       d="m -4.0748334,91.729947 -4.06739,0 0,9.861393 4.06739,0 0,-9.861393 z"
       id="path3465"
       style="fill:#b3b3b3;fill-opacity:1;fill-rule:evenodd;stroke:#000000;stroke-width:0.99999994;stroke-linecap:round;stroke-linejoin:miter;stroke-miterlimit:4;stroke-opacity:1;stroke-dasharray:none;stroke-dashoffset:0;marker:none;visibility:visible;display:inline;overflow:visible;enable-background:accumulate" />
    <path
       d="m -4.0748334,91.729947 0,9.861393 9.16886,0 0,-9.861393 -9.16886,0 z"
       id="path3467"
       style="fill:#b3b3b3;fill-opacity:1;fill-rule:evenodd;stroke:#000000;stroke-width:0.99999994;stroke-linecap:round;stroke-linejoin:miter;stroke-miterlimit:4;stroke-opacity:1;stroke-dasharray:none;stroke-dashoffset:0;marker:none;visibility:visible;display:inline;overflow:visible;enable-background:accumulate" />
    <path
       d="m -5.7696934,90.725717 0,-7.13018 11.201,0 c 2.77019,2.4899 2.99952,4.9798 0.33943,7.46971 l -11.54043,-0.33953 z"
       id="path3469"
       style="fill:#b3b3b3;fill-opacity:1;fill-rule:evenodd;stroke:#000000;stroke-width:0.99999994px;stroke-linecap:butt;stroke-linejoin:miter;stroke-opacity:1" />
    <rect
       width="8.4856062"
       height="2.037194"
       x="-3.3937438"
       y="81.897873"
       id="rect3471"
       style="fill:#b3b3b3;fill-opacity:1;fill-rule:evenodd;stroke:#000000;stroke-width:0.99999994;stroke-linecap:round;stroke-linejoin:miter;stroke-miterlimit:4;stroke-opacity:1;stroke-dasharray:none;stroke-dashoffset:0;marker:none;visibility:visible;display:inline;overflow:visible;enable-background:accumulate" />
    <path
       d="m -505.40215,210.24111 0,8.48831 -2.71539,0 0,1.69765 11.201,0.33953 21.72314,-6.45112 -30.20875,-4.07437 z"
       id="path3473"
       style="fill:#ab0c0c;fill-opacity:1;fill-rule:evenodd;stroke:#000000;stroke-width:0.99999994px;stroke-linecap:butt;stroke-linejoin:miter;stroke-opacity:1" />
    <path
       d="m -525.76924,207.85987 c -1.23329,-0.0307 -2.03216,0.62141 -1.689,3.06876 l 1.3443,15.27481 c 0.29363,1.81959 0.68649,4.09124 5.79086,4.06868 l 24.09412,0 0,-8.82697 -0.48258,-0.75857 -0.20681,0.069 -11.20256,-0.34481 0,-1.68953 2.72308,0 0,-8.48218 2.24052,0.31032 -0.20682,-0.31032 -9.51356,-1.68954 -12.89155,-0.68961 z"
       id="path3475"
       style="fill:#ab0c0c;fill-opacity:1;fill-rule:evenodd;stroke:#000000;stroke-width:0.99999994px;stroke-linecap:butt;stroke-linejoin:miter;stroke-opacity:1" />
    <rect
       width="14.400551"
       height="8.6430826"
       x="-266.93466"
       y="134.93005"
       id="rect3479"
       style="fill:#b3b3b3;fill-opacity:1;fill-rule:evenodd;stroke:#000000;stroke-width:0.99999994;stroke-linecap:round;stroke-linejoin:miter;stroke-miterlimit:4;stroke-opacity:1;stroke-dasharray:none;stroke-dashoffset:0;marker:none;visibility:visible;display:inline;overflow:visible;enable-background:accumulate" />
    <rect
       width="7.9203024"
       height="7.2025685"
       x="-199.01205"
       y="169.26227"
       id="rect3481"
       style="fill:#b3b3b3;fill-opacity:1;fill-rule:evenodd;stroke:#000000;stroke-width:0.99999994;stroke-linecap:round;stroke-linejoin:miter;stroke-miterlimit:4;stroke-opacity:1;stroke-dasharray:none;stroke-dashoffset:0;marker:none;visibility:visible;display:inline;overflow:visible;enable-background:accumulate" />
    <path
       d="m -196.13196,169.26228 23.04089,-37.21328 33.36127,-11.28402 0.96004,2.16078 -28.5611,12.72453 -26.88102,34.33225 -1.92008,-0.72026 z"
       id="path3483"
       style="fill:#b3b3b3;fill-opacity:1;fill-rule:evenodd;stroke:#000000;stroke-width:0.99999994px;stroke-linecap:butt;stroke-linejoin:miter;stroke-opacity:1" />
    <g
       transform="matrix(1.1030209,0,0,1.1033722,-596.70727,57.387487)"
       id="g3485"
       style="fill:#b3b3b3;fill-opacity:1">
      <rect
         width="17.407408"
         height="1.5231482"
         x="395.58334"
         y="100.52315"
         id="rect3487"
         style="fill:#b3b3b3;fill-opacity:1;fill-rule:evenodd;stroke:#000000;stroke-width:0.90645677;stroke-linecap:round;stroke-linejoin:miter;stroke-miterlimit:4;stroke-opacity:1;stroke-dasharray:none;stroke-dashoffset:0;marker:none;visibility:visible;display:inline;overflow:visible;enable-background:accumulate" />
      <path
         d="M 410.81482,105.74538 414.2963,98.347222 425.8287,99 l 4.56945,2.17593 0.65278,4.78703 -20.23611,-0.21758 z"
         id="path3489"
         style="fill:#b3b3b3;fill-opacity:1;fill-rule:evenodd;stroke:#000000;stroke-width:0.90645677px;stroke-linecap:butt;stroke-linejoin:miter;stroke-opacity:1" />
      <rect
         width="16.754637"
         height="3.0463011"
         x="411.68518"
         y="105.74537"
         id="rect3491"
         style="fill:#b3b3b3;fill-opacity:1;fill-rule:evenodd;stroke:#000000;stroke-width:0.90645677;stroke-linecap:round;stroke-linejoin:miter;stroke-miterlimit:4;stroke-opacity:1;stroke-dasharray:none;stroke-dashoffset:0;marker:none;visibility:visible;display:inline;overflow:visible;enable-background:accumulate" />
    </g>
    <rect
       width="0.96003675"
       height="110.43938"
       x="-249.17398"
       y="66.745743"
       id="rect3493"
       style="fill:#b3b3b3;fill-opacity:1;fill-rule:evenodd;stroke:#000000;stroke-width:0.99999994;stroke-linecap:round;stroke-linejoin:miter;stroke-miterlimit:4;stroke-opacity:1;stroke-dasharray:none;stroke-dashoffset:0;marker:none;visibility:visible;display:inline;overflow:visible;enable-background:accumulate" />
    <path
       d="m 395.77224,169.82551 c -61.59397,4.58302 -142.48576,8.42344 -211.81448,8.17185 l -547.82222,-2.03434 -193.47676,3.37907 c -0.65013,7.026 -0.77224,13.39854 0.34469,18.06772 l 935.74089,0 0.0689,-1.75849 c 0.87425,-7.24336 2.81083,-13.66276 16.95894,-21.75713 7.12434,-4.07593 0.91143,-3.18391 0,-4.06868 z"
       id="path3381"
       style="fill:#b3b3b3;fill-opacity:1;fill-rule:evenodd;stroke:#000000;stroke-width:0.99999994px;stroke-linecap:butt;stroke-linejoin:miter;stroke-opacity:1" />
    <rect
       width="11.540424"
       height="5.4325171"
       x="-4.0725765"
       y="138.9393"
       id="rect3495"
       style="fill:#b3b3b3;fill-opacity:1;fill-rule:evenodd;stroke:#000000;stroke-width:0.99999994;stroke-linecap:round;stroke-linejoin:miter;stroke-miterlimit:4;stroke-opacity:1;stroke-dasharray:none;stroke-dashoffset:0;marker:none;visibility:visible;display:inline;overflow:visible;enable-background:accumulate" />
    <rect
       width="10.522151"
       height="2.7162585"
       x="-3.3937438"
       y="145.39044"
       id="rect3497"
       style="fill:#b3b3b3;fill-opacity:1;fill-rule:evenodd;stroke:#000000;stroke-width:0.99999994;stroke-linecap:round;stroke-linejoin:miter;stroke-miterlimit:4;stroke-opacity:1;stroke-dasharray:none;stroke-dashoffset:0;marker:none;visibility:visible;display:inline;overflow:visible;enable-background:accumulate" />
    <path
       d="m -7.4668134,147.76715 20.3654504,0.33954 -3.3942304,4.07438 -0.50914,12.56269 -12.47384,-0.0849 -1.01827,-12.5627 -2.96997,-4.32903 z"
       id="path3499"
       style="fill:#b3b3b3;fill-opacity:1;fill-rule:evenodd;stroke:#000000;stroke-width:0.99999994px;stroke-linecap:butt;stroke-linejoin:miter;stroke-opacity:1" />
    <g
       transform="matrix(1.1030209,0,0,1.1033722,-596.70727,57.387487)"
       id="g3501"
       style="fill:#b3b3b3;fill-opacity:1">
      <rect
         width="3.6926687"
         height="6.4621701"
         x="475.12338"
         y="80.989044"
         id="rect3503"
         style="fill:#b3b3b3;fill-opacity:1;fill-rule:evenodd;stroke:#000000;stroke-width:0.90645677;stroke-linecap:round;stroke-linejoin:miter;stroke-miterlimit:4;stroke-opacity:1;stroke-dasharray:none;stroke-dashoffset:0;marker:none;visibility:visible;display:inline;overflow:visible;enable-background:accumulate" />
      <rect
         width="9.5393944"
         height="1.538612"
         x="472.35388"
         y="79.758156"
         id="rect3505"
         style="fill:#b3b3b3;fill-opacity:1;fill-rule:evenodd;stroke:#000000;stroke-width:0.90645677;stroke-linecap:round;stroke-linejoin:miter;stroke-miterlimit:4;stroke-opacity:1;stroke-dasharray:none;stroke-dashoffset:0;marker:none;visibility:visible;display:inline;overflow:visible;enable-background:accumulate" />
      <path
         d="m 479.73921,75.911629 a 2.4617791,2.3079181 0 1 1 -4.92355,0 2.4617791,2.3079181 0 1 1 4.92355,0 z"
         transform="translate(0,0.9231672)"
         id="path3507"
         style="fill:#b3b3b3;fill-opacity:1;fill-rule:evenodd;stroke:#000000;stroke-width:0.90645677;stroke-linecap:round;stroke-linejoin:miter;stroke-miterlimit:4;stroke-opacity:1;stroke-dasharray:none;stroke-dashoffset:0;marker:none;visibility:visible;display:inline;overflow:visible;enable-background:accumulate" />
    </g>
    <path
       d="m 395.78681,169.83252 c -61.59395,4.58303 -142.51503,8.40784 -211.84375,8.15625 l -547.8125,-2.03125 -193.46875,3.375 c -0.65013,7.02599 -0.77318,13.39332 0.34375,18.0625 0.40192,1.68017 0.91231,3.16142 1.6875,4.34375 l 116.09375,18.34375 0.6875,13.59375 813.25,2.03125 2.71875,-2.71875 1.3125,-35.59375 0.0625,-1.75 c 0.87425,-7.24335 2.82064,-13.65563 16.96875,-21.75 7.12436,-4.07594 0.91143,-3.17773 0,-4.0625 z"
       id="path4304"
       style="fill:url(#linearGradient4315);fill-opacity:1;fill-rule:evenodd;stroke:#000000;stroke-width:0.99999994px;stroke-linecap:butt;stroke-linejoin:miter;stroke-opacity:1" />
  </g>
</svg>
